# xmcd
# 
# Track frame offsets:
#	182
#	13337
#	29115
#	44655
#	59885
#	74005
#	86057
#	101925
#	116195
#	130185
#	145580
#	158015
#	170807
#	184142
#	199565
#	214915
#	226560
#	242175
#	257317
#	272537
#	283495
#	298757
#
# Disc length: 4186 seconds
#
# Revision: 1
# Processed by: cddbd v1.4PL0 Copyright (c) Steve Scherf et al.
# Submitted via: Audio-CD-Archiv 2.10.446
#
DISCID=65105816
DTITLE=Jimmie Rodgers - The Yodelling Ranger
DYEAR=1900
DGENRE=blues
TTITLE0=jimmie the kid
TTITLE1=roll along kentucky moon
TTITLE2=looking for a new mama
TTITLE3=round up time out west
TTITLE4=sleep baby sleep
TTITLE5=yodelling my way back home
TTITLE6=gambeling bar room blues
TTITLE7=in the hills of tennessee
TTITLE8=old pall of my heart
TTITLE9=my lovin' gal lucille (blue yodel nr. 2)
TTITLE10=standin' on the corner (blue yodel nr. 9)
TTITLE11=she was happy till she met you
TTITLE12=peach pickin' time in georgia
TTITLE13=i'm lonesome too
TTITLE14=jimmie rodgers last blue yodel
TTITLE15=the yodelling ranger
TTITLE16=mississippi moon
TTITLE17=prairie lullaby
TTITLE18=down the old road to home
TTITLE19=years ago
TTITLE20=jimmie rodgers visits the carter family
TTITLE21=the carter family and jimmie rodgers
EXTD=
EXTT0=
EXTT1=
EXTT2=
EXTT3=
EXTT4=
EXTT5=
EXTT6=
EXTT7=
EXTT8=
EXTT9=
EXTT10=
EXTT11=
EXTT12=
EXTT13=
EXTT14=
EXTT15=
EXTT16=
EXTT17=
EXTT18=
EXTT19=
EXTT20=
EXTT21=
PLAYORDER=
